<?xml version="1.0" standalone="no"?>
<!DOCTYPE svg PUBLIC "-//W3C//DTD SVG 20010904//EN"
 "http://www.w3.org/TR/2001/REC-SVG-20010904/DTD/svg10.dtd">
<svg version="1.0" xmlns="http://www.w3.org/2000/svg"
 width="1024.000000pt" height="1024.000000pt" viewBox="0 0 1024.000000 1024.000000"
 preserveAspectRatio="xMidYMid meet">

<g transform="translate(0.000000,1024.000000) scale(0.100000,-0.100000)"
fill="#000000" stroke="none">
<path d="M4935 7635 c-759 -100 -1368 -681 -1511 -1440 -15 -80 -19 -146 -19
-335 0 -219 2 -243 27 -345 113 -477 395 -870 813 -1132 79 -50 271 -139 372
-172 219 -72 484 -103 710 -83 379 35 644 138 1010 397 l42 30 1 1126 c0 862
-3 1128 -12 1137 -17 17 -272 17 -286 -1 -7 -8 -12 -340 -13 -1045 l-3 -1033
-55 -36 c-98 -65 -185 -113 -206 -113 -25 0 -12 -24 -193 370 -74 162 -175
383 -224 490 -49 107 -135 296 -190 420 -55 124 -134 299 -176 390 -41 91
-128 291 -194 445 -65 154 -123 284 -128 288 -11 12 -162 -60 -256 -123 -95
-64 -235 -201 -293 -289 -97 -143 -168 -325 -197 -500 -19 -114 -14 -336 11
-446 49 -225 157 -434 298 -577 65 -66 135 -124 141 -117 2 2 24 49 49 104 25
55 68 148 95 207 28 59 60 126 71 150 69 151 172 371 193 412 23 45 26 48 36
30 12 -23 240 -516 340 -734 39 -85 118 -258 177 -385 58 -126 108 -235 111
-241 9 -21 -158 -37 -321 -31 -183 7 -278 24 -437 77 -567 189 -935 651 -990
1242 -42 445 144 906 477 1187 224 190 443 292 722 337 54 8 98 16 99 17 1 1
27 61 59 132 31 72 65 145 76 163 10 18 19 35 19 38 0 8 -146 2 -245 -11z
m-330 -1249 c50 -112 56 -132 45 -150 -29 -46 -144 -287 -231 -483 -51 -117
-96 -213 -100 -213 -6 0 -18 37 -39 115 -18 67 -24 254 -11 346 14 95 51 219
87 291 61 120 165 252 183 232 5 -5 35 -67 66 -138z"/>
<path d="M5407 7639 c-23 -13 -40 -48 -159 -322 -189 -437 -228 -531 -228
-547 0 -9 38 -94 85 -190 77 -155 87 -171 99 -154 7 10 57 118 111 239 54 121
116 258 137 305 97 209 124 267 143 303 l20 38 383 -1 382 0 0 170 0 170 -477
0 c-307 0 -484 -4 -496 -11z"/>
<path d="M4818 5313 c-19 -21 -228 -459 -228 -478 0 -24 203 -101 340 -128
108 -21 200 -30 200 -18 0 26 -272 633 -286 638 -6 2 -18 -4 -26 -14z"/>
<path d="M2211 3461 c-11 -20 -191 -427 -218 -493 -23 -55 -14 -68 52 -68 l55
0 21 45 22 46 101 -3 101 -3 23 -42 c23 -42 24 -43 77 -43 30 0 57 4 60 10 3
5 -47 135 -112 287 -110 257 -121 278 -145 281 -18 2 -30 -3 -37 -17z m72
-284 c15 -41 27 -77 27 -80 0 -8 -77 -9 -106 -1 l-22 6 25 61 c35 88 34 87 42
87 3 0 19 -33 34 -73z"/>
<path d="M3752 3193 l3 -288 34 -3 c19 -2 44 -1 57 2 24 6 24 7 24 156 0 88 4
150 9 150 6 0 71 -69 146 -154 75 -85 144 -156 154 -159 40 -10 41 -1 39 289
l-3 279 -57 3 -58 3 0 -151 c0 -82 -3 -150 -7 -149 -5 0 -47 46 -96 102 -154
179 -183 207 -217 207 l-30 0 2 -287z"/>
<path d="M7840 3343 c-28 -76 -56 -145 -60 -153 -9 -15 -10 -13 -56 173 l-26
107 -58 0 c-43 0 -59 -4 -64 -15 -3 -9 11 -68 30 -133 20 -64 51 -171 71 -237
48 -165 57 -185 85 -185 21 0 29 17 84 168 33 92 65 165 70 162 4 -3 37 -75
71 -160 66 -161 85 -192 104 -173 16 16 181 544 175 559 -4 10 -24 14 -64 14
l-59 0 -34 -131 c-33 -127 -44 -158 -52 -149 -2 3 -29 68 -59 145 -49 123 -59
140 -81 143 -23 3 -28 -6 -77 -135z"/>
<path d="M2692 3458 c-9 -9 -12 -81 -12 -285 l0 -273 60 0 60 0 -2 283 -3 282
-45 3 c-26 2 -50 -2 -58 -10z"/>
<path d="M3410 3185 l0 -286 58 3 57 3 3 283 2 282 -60 0 -60 0 0 -285z"/>
<path d="M4390 3451 c-31 -58 4 -101 82 -101 l48 0 0 -213 c0 -152 3 -216 12
-225 16 -16 93 -15 107 1 7 9 12 90 13 228 l3 214 51 -3 c62 -4 76 10 72 70
l-3 43 -187 3 c-177 2 -188 1 -198 -17z"/>
<path d="M4957 3463 c-4 -3 -7 -127 -7 -273 0 -216 3 -270 14 -279 9 -8 64
-11 172 -9 l158 3 10 33 c6 22 5 40 -2 57 -11 24 -14 25 -122 25 l-110 0 0 55
0 55 100 0 100 0 0 55 0 54 -97 3 -98 3 -3 57 -3 57 118 3 118 3 3 29 c2 15 1
39 -2 52 l-6 24 -169 0 c-92 0 -171 -3 -174 -7z"/>
<path d="M5506 3454 c-3 -9 -6 -132 -6 -274 0 -291 -2 -283 77 -278 l48 3 3
103 3 102 28 0 c25 0 32 -9 77 -102 l49 -103 58 -3 c87 -5 87 1 3 157 l-35 65
29 17 c47 29 73 91 68 166 -5 75 -26 108 -88 141 -39 19 -59 22 -176 22 -111
0 -133 -3 -138 -16z m258 -115 c31 -24 35 -72 9 -101 -12 -14 -31 -18 -80 -18
l-63 0 0 70 0 70 54 0 c39 0 60 -6 80 -21z"/>
<path d="M6037 3464 c-7 -8 8 -48 93 -244 125 -291 140 -320 165 -320 18 0 29
14 54 70 17 39 31 72 31 75 0 2 20 48 45 101 25 53 45 98 45 100 0 2 18 43 39
91 63 141 63 133 -12 133 l-64 0 -63 -155 c-34 -86 -67 -154 -73 -152 -5 1
-37 71 -70 155 l-60 152 -62 0 c-34 0 -64 -3 -68 -6z"/>
<path d="M6727 3463 c-4 -3 -7 -129 -7 -279 0 -304 -5 -284 75 -284 30 0 45 5
49 16 3 9 6 131 6 273 0 187 -3 260 -12 269 -13 13 -100 17 -111 5z"/>
<path d="M7076 3454 c-3 -9 -6 -130 -6 -269 0 -139 3 -260 6 -269 5 -14 30
-16 168 -16 113 0 166 4 174 12 16 16 16 80 0 96 -8 8 -49 12 -120 12 l-108 0
0 55 0 55 99 0 99 0 7 29 c3 16 3 40 0 53 -6 24 -11 26 -106 33 l-100 7 3 51
3 52 115 5 c113 5 115 5 124 31 5 14 6 38 2 53 l-6 26 -174 0 c-149 0 -175 -2
-180 -16z"/>
</g>
</svg>
